<svg xmlns="http://www.w3.org/2000/svg" xmlns:xlink="http://www.w3.org/1999/xlink" width="22" height="22" viewBox="0 0 22 22">
  <defs>
    <clipPath id="clip-path">
      <rect id="Rectangle_20" data-name="Rectangle 20" width="22" height="22" transform="translate(1574 61)" fill="#979797" stroke="#707070" stroke-width="1"/>
    </clipPath>
  </defs>
  <g id="Group_36" data-name="Group 36" transform="translate(-1574 -61)">
    <g id="Mask_Group_3" data-name="Mask Group 3" clip-path="url(#clip-path)">
      <g id="bell" transform="translate(1575.833 61)">
        <path id="Path_31" data-name="Path 31" d="M17.764,15.5a6.14,6.14,0,0,1-2.181-4.7V8.25a6.422,6.422,0,0,0-5.5-6.343V.917a.917.917,0,0,0-1.833,0v.99A6.421,6.421,0,0,0,2.75,8.25v2.556A6.146,6.146,0,0,1,.561,15.511,1.6,1.6,0,0,0,1.6,18.333H16.729a1.6,1.6,0,0,0,1.035-2.83Zm0,0" fill="#979797"/>
        <path id="Path_32" data-name="Path 32" d="M9.167,22a3.443,3.443,0,0,0,3.368-2.75H5.8A3.443,3.443,0,0,0,9.167,22Zm0,0" fill="#979797"/>
      </g>
    </g>
    <g id="Ellipse_6" data-name="Ellipse 6" transform="translate(1587 61)" fill="#3f0e40" stroke="#fff" stroke-width="1">
      <circle cx="4" cy="4" r="4" stroke="none"/>
      <circle cx="4" cy="4" r="3.5" fill="none"/>
    </g>
  </g>
</svg>
