<svg xmlns="http://www.w3.org/2000/svg" xmlns:xlink="http://www.w3.org/1999/xlink" width="21" height="21" viewBox="0 0 21 21">
  <defs>
    <clipPath id="clip-path">
      <rect id="Rectangle_22" data-name="Rectangle 22" width="21" height="21" transform="translate(81 229)" fill="#979797" stroke="#707070" stroke-width="1"/>
    </clipPath>
  </defs>
  <g id="Mask_Group_6" data-name="Mask Group 6" transform="translate(-81 -229)" clip-path="url(#clip-path)">
    <g id="users" transform="translate(81 229)">
      <g id="Group_49" data-name="Group 49">
        <path id="Path_38" data-name="Path 38" d="M17.025,10.261A5.24,5.24,0,0,0,10.5,2.08a5.242,5.242,0,0,0-6.529,8.181A7.448,7.448,0,0,0,0,16.88v2.25a.75.75,0,0,0,.75.75h19.5a.75.75,0,0,0,.75-.75V16.88A7.448,7.448,0,0,0,17.025,10.261Zm-5.185-.529c-.075-.036-.15-.067-.217-.108.006-.008.01-.016.016-.023a5.261,5.261,0,0,0,.8-1.463l.023-.063a5.29,5.29,0,0,0,.2-.772c.007-.038.012-.075.018-.116a5.272,5.272,0,0,0,.068-.806,5.275,5.275,0,0,0-.068-.8c-.006-.039-.011-.075-.018-.116a5.291,5.291,0,0,0-.2-.772l-.023-.063a5.262,5.262,0,0,0-.8-1.463c-.006-.008-.01-.016-.016-.023a3.744,3.744,0,1,1,3.418,6.652c-.058.026-.115.05-.174.075a3.676,3.676,0,0,1-.571.178c-.037.008-.075.013-.113.02a3.751,3.751,0,0,1-.66.067c-.1,0-.2-.008-.3-.016a.567.567,0,0,1-.112-.008,3.789,3.789,0,0,1-1.226-.361C11.87,9.737,11.854,9.737,11.839,9.731ZM19.5,18.38H15v-1.5c0-.235-.013-.467-.034-.7-.006-.068-.016-.134-.024-.2-.02-.166-.044-.33-.075-.493q-.02-.1-.043-.209-.054-.25-.125-.5c-.016-.054-.03-.109-.046-.162a7.431,7.431,0,0,0-.9-1.9l-.029-.043q-.193-.287-.413-.556l-.005-.007a6.807,6.807,0,0,0-.484-.538h.031a5.308,5.308,0,0,0,.638.045h.041a5.3,5.3,0,0,0,.591-.038c.061-.008.122-.019.184-.029q.239-.037.472-.1c.044-.011.089-.022.134-.034a5.107,5.107,0,0,0,.6-.2A5.962,5.962,0,0,1,19.5,16.88v1.5Z" fill="#979797"/>
      </g>
    </g>
  </g>
</svg>
