<svg xmlns="http://www.w3.org/2000/svg" xmlns:xlink="http://www.w3.org/1999/xlink" width="24" height="24" viewBox="0 0 24 24">
  <defs>
    <clipPath id="clip-path">
      <rect id="Rectangle_46" data-name="Rectangle 46" width="24" height="24" transform="translate(969 254)" fill="#32405b" stroke="#707070" stroke-width="1"/>
    </clipPath>
  </defs>
  <g id="Mask_Group_12" data-name="Mask Group 12" transform="translate(-969 -254)" clip-path="url(#clip-path)">
    <g id="users" transform="translate(969 254)">
      <g id="Group_104" data-name="Group 104">
        <path id="Path_47" data-name="Path 47" d="M19.457,11.727A5.989,5.989,0,0,0,12,2.377a5.991,5.991,0,0,0-7.461,9.35A8.512,8.512,0,0,0,0,19.291v2.571a.857.857,0,0,0,.857.857H23.143A.857.857,0,0,0,24,21.862V19.291A8.512,8.512,0,0,0,19.457,11.727Zm-5.926-.605c-.086-.041-.171-.077-.248-.123.007-.009.011-.018.018-.027A6.013,6.013,0,0,0,14.219,9.3l.027-.072a6.046,6.046,0,0,0,.227-.882c.008-.044.014-.086.021-.133a6.025,6.025,0,0,0,.078-.921,6.029,6.029,0,0,0-.078-.92c-.007-.045-.013-.086-.021-.133a6.047,6.047,0,0,0-.227-.882l-.027-.072A6.014,6.014,0,0,0,13.3,3.612c-.007-.009-.011-.018-.018-.027a4.279,4.279,0,1,1,3.907,7.6c-.066.03-.132.057-.2.086a4.2,4.2,0,0,1-.652.2c-.043.009-.086.015-.129.023a4.287,4.287,0,0,1-.754.076c-.114,0-.229-.009-.343-.019a.648.648,0,0,1-.129-.009,4.33,4.33,0,0,1-1.4-.413C13.566,11.128,13.547,11.129,13.531,11.122Zm8.755,9.884H17.143V19.291c0-.268-.015-.534-.039-.8-.007-.077-.019-.153-.027-.231-.023-.189-.05-.377-.086-.563q-.023-.119-.049-.239-.062-.286-.143-.567c-.018-.062-.034-.124-.053-.185a8.493,8.493,0,0,0-1.033-2.166l-.033-.049q-.221-.328-.472-.635l-.006-.008a7.779,7.779,0,0,0-.553-.615h.035a6.067,6.067,0,0,0,.729.051h.047a6.062,6.062,0,0,0,.675-.044c.07-.009.14-.021.21-.033q.273-.042.54-.109c.051-.013.1-.025.153-.039a5.836,5.836,0,0,0,.686-.233,6.814,6.814,0,0,1,4.562,6.461v1.714Z" fill="#32405b"/>
      </g>
    </g>
  </g>
</svg>
