<svg xmlns="http://www.w3.org/2000/svg" xmlns:xlink="http://www.w3.org/1999/xlink" width="21" height="21" viewBox="0 0 21 21">
  <defs>
    <clipPath id="clip-path">
      <rect id="Rectangle_22" data-name="Rectangle 22" width="21" height="21" transform="translate(40 360)" fill="#979797" stroke="#707070" stroke-width="1"/>
    </clipPath>
  </defs>
  <g id="Mask_Group_8" data-name="Mask Group 8" transform="translate(-40 -360)" clip-path="url(#clip-path)">
    <g id="rss-symbol" transform="translate(40.001 360)">
      <path id="Path_39" data-name="Path 39" d="M21,19.312a1.687,1.687,0,0,1-3.373,0A15.957,15.957,0,0,0,1.687,3.373,1.687,1.687,0,1,1,1.687,0,19.332,19.332,0,0,1,21,19.312ZM1.687,7.892a1.687,1.687,0,1,0,0,3.373,8.059,8.059,0,0,1,8.048,8.048,1.687,1.687,0,0,0,3.373,0A11.435,11.435,0,0,0,1.687,7.892Zm1.339,7.562a2.519,2.519,0,1,0,2.519,2.519A2.519,2.519,0,0,0,3.027,15.454Z" fill="#979797"/>
    </g>
  </g>
</svg>
