<svg xmlns="http://www.w3.org/2000/svg" xmlns:xlink="http://www.w3.org/1999/xlink" width="21" height="21" viewBox="0 0 21 21">
  <defs>
    <clipPath id="clip-path">
      <rect id="Rectangle_22" data-name="Rectangle 22" width="21" height="21" transform="translate(-151.432 2652.623)" fill="#fff" stroke="#707070" stroke-width="1"/>
    </clipPath>
  </defs>
  <g id="Mask_Group_4" data-name="Mask Group 4" transform="translate(151.432 -2652.623)" clip-path="url(#clip-path)">
    <g id="home" transform="translate(-151.432 2652.623)">
      <g id="Group_40" data-name="Group 40">
        <g id="Group_39" data-name="Group 39">
          <path id="Path_33" data-name="Path 33" d="M20.647,9.388,11.225.8A1.072,1.072,0,0,0,9.775.8L.353,9.388a1.077,1.077,0,0,0,.725,1.873h1.5v8.6a.618.618,0,0,0,.618.618H8.365a.618.618,0,0,0,.618-.618V14.64h3.035v5.223a.618.618,0,0,0,.618.618H17.8a.618.618,0,0,0,.618-.618v-8.6h1.505a1.077,1.077,0,0,0,.725-1.873Z" fill="#fff"/>
        </g>
      </g>
      <g id="Group_42" data-name="Group 42">
        <g id="Group_41" data-name="Group 41">
          <path id="Path_34" data-name="Path 34" d="M18.256,1.753H14.108l4.765,4.333V2.37A.618.618,0,0,0,18.256,1.753Z" fill="#fff"/>
        </g>
      </g>
    </g>
  </g>
</svg>
