<svg xmlns="http://www.w3.org/2000/svg" xmlns:xlink="http://www.w3.org/1999/xlink" width="26" height="26" viewBox="0 0 26 26">
  <defs>
    <clipPath id="clip-path">
      <rect id="Rectangle_24" data-name="Rectangle 24" width="26" height="26" transform="translate(1513 150)" stroke="#707070" stroke-width="1"/>
    </clipPath>
  </defs>
  <g id="Mask_Group_9" data-name="Mask Group 9" transform="translate(-1513 -150)" clip-path="url(#clip-path)">
    <g id="calendar_1_" data-name="calendar (1)" transform="translate(1513 150)">
      <g id="Group_66" data-name="Group 66">
        <g id="Group_65" data-name="Group 65">
          <path id="Path_40" data-name="Path 40" d="M22.953,2.031H21.734V0H19.7V2.031H6.3V0H4.266V2.031H3.047A3.05,3.05,0,0,0,0,5.078V22.953A3.05,3.05,0,0,0,3.047,26H22.953A3.05,3.05,0,0,0,26,22.953V5.078A3.05,3.05,0,0,0,22.953,2.031Zm1.016,20.922a1.017,1.017,0,0,1-1.016,1.016H3.047a1.017,1.017,0,0,1-1.016-1.016V9.547H23.969Zm0-15.437H2.031V5.078A1.017,1.017,0,0,1,3.047,4.063H4.266V6.094H6.3V4.063H19.7V6.094h2.031V4.063h1.219a1.017,1.017,0,0,1,1.016,1.016Z"/>
        </g>
      </g>
      <g id="Group_68" data-name="Group 68">
        <g id="Group_67" data-name="Group 67">
          <rect id="Rectangle_25" data-name="Rectangle 25" width="2.031" height="2.031" transform="translate(3.859 11.68)"/>
        </g>
      </g>
      <g id="Group_70" data-name="Group 70">
        <g id="Group_69" data-name="Group 69">
          <rect id="Rectangle_26" data-name="Rectangle 26" width="2.031" height="2.031" transform="translate(7.922 11.68)"/>
        </g>
      </g>
      <g id="Group_72" data-name="Group 72">
        <g id="Group_71" data-name="Group 71">
          <rect id="Rectangle_27" data-name="Rectangle 27" width="2.031" height="2.031" transform="translate(11.984 11.68)"/>
        </g>
      </g>
      <g id="Group_74" data-name="Group 74">
        <g id="Group_73" data-name="Group 73">
          <rect id="Rectangle_28" data-name="Rectangle 28" width="2.031" height="2.031" transform="translate(16.047 11.68)"/>
        </g>
      </g>
      <g id="Group_76" data-name="Group 76">
        <g id="Group_75" data-name="Group 75">
          <rect id="Rectangle_29" data-name="Rectangle 29" width="2.031" height="2.031" transform="translate(20.109 11.68)"/>
        </g>
      </g>
      <g id="Group_78" data-name="Group 78">
        <g id="Group_77" data-name="Group 77">
          <rect id="Rectangle_30" data-name="Rectangle 30" width="2.031" height="2.031" transform="translate(3.859 15.742)"/>
        </g>
      </g>
      <g id="Group_80" data-name="Group 80">
        <g id="Group_79" data-name="Group 79">
          <rect id="Rectangle_31" data-name="Rectangle 31" width="2.031" height="2.031" transform="translate(7.922 15.742)"/>
        </g>
      </g>
      <g id="Group_82" data-name="Group 82">
        <g id="Group_81" data-name="Group 81">
          <rect id="Rectangle_32" data-name="Rectangle 32" width="2.031" height="2.031" transform="translate(11.984 15.742)"/>
        </g>
      </g>
      <g id="Group_84" data-name="Group 84">
        <g id="Group_83" data-name="Group 83">
          <rect id="Rectangle_33" data-name="Rectangle 33" width="2.031" height="2.031" transform="translate(16.047 15.742)"/>
        </g>
      </g>
      <g id="Group_86" data-name="Group 86">
        <g id="Group_85" data-name="Group 85">
          <rect id="Rectangle_34" data-name="Rectangle 34" width="2.031" height="2.031" transform="translate(3.859 19.805)"/>
        </g>
      </g>
      <g id="Group_88" data-name="Group 88">
        <g id="Group_87" data-name="Group 87">
          <rect id="Rectangle_35" data-name="Rectangle 35" width="2.031" height="2.031" transform="translate(7.922 19.805)"/>
        </g>
      </g>
      <g id="Group_90" data-name="Group 90">
        <g id="Group_89" data-name="Group 89">
          <rect id="Rectangle_36" data-name="Rectangle 36" width="2.031" height="2.031" transform="translate(11.984 19.805)"/>
        </g>
      </g>
      <g id="Group_92" data-name="Group 92">
        <g id="Group_91" data-name="Group 91">
          <rect id="Rectangle_37" data-name="Rectangle 37" width="2.031" height="2.031" transform="translate(16.047 19.805)"/>
        </g>
      </g>
      <g id="Group_94" data-name="Group 94">
        <g id="Group_93" data-name="Group 93">
          <rect id="Rectangle_38" data-name="Rectangle 38" width="2.031" height="2.031" transform="translate(20.109 15.742)"/>
        </g>
      </g>
    </g>
  </g>
</svg>
