<svg xmlns="http://www.w3.org/2000/svg" xmlns:xlink="http://www.w3.org/1999/xlink" width="13" height="13" viewBox="0 0 13 13">
  <defs>
    <clipPath id="clip-path">
      <rect id="Rectangle_45" data-name="Rectangle 45" width="13" height="13" transform="translate(-0.352 -0.352)" stroke="#707070" stroke-width="1"/>
    </clipPath>
  </defs>
  <g id="Mask_Group_10" data-name="Mask Group 10" transform="translate(0.352 0.352)" clip-path="url(#clip-path)">
    <g id="prize-badge-with-star-and-ribbon" transform="translate(1.253 0.385)">
      <path id="Path_42" data-name="Path 42" d="M10.035,7.771a1.1,1.1,0,0,1,.991-.572.6.6,0,0,0,.665-.666,1.1,1.1,0,0,1,.571-.989.6.6,0,0,0,.243-.908,1.1,1.1,0,0,1,0-1.144.6.6,0,0,0-.243-.906,1.1,1.1,0,0,1-.571-.992.6.6,0,0,0-.665-.664,1.105,1.105,0,0,1-.991-.572A.6.6,0,0,0,9.129.116a1.1,1.1,0,0,1-1.144,0,.6.6,0,0,0-.907.243,1.1,1.1,0,0,1-.991.572.6.6,0,0,0-.664.664,1.109,1.109,0,0,1-.572.992.6.6,0,0,0-.243.906,1.1,1.1,0,0,1,0,1.144.6.6,0,0,0,.243.908,1.1,1.1,0,0,1,.572.989.6.6,0,0,0,.664.666,1.1,1.1,0,0,1,.991.572.6.6,0,0,0,.907.242,1.113,1.113,0,0,1,1.144,0A.6.6,0,0,0,10.035,7.771ZM8.558,6.457a2.392,2.392,0,1,1,2.392-2.393A2.392,2.392,0,0,1,8.558,6.457Z" transform="translate(-3.732 0)"/>
      <path id="Path_43" data-name="Path 43" d="M5.032,17.375c-.46,0-.521-.214-.521-.214l-1.8,3.529,1.44-.162.8,1.2S6.61,18.265,6.61,18.289C5.751,18.267,6.093,17.4,5.032,17.375Z" transform="translate(-2.716 -9.825)"/>
      <path id="Path_44" data-name="Path 44" d="M18.191,17.485c-1.312.137-1.045.463-1.345.716a.923.923,0,0,1-.776.3l2.025,3.484.5-1.29,1.416.185Z" transform="translate(-10.361 -10.01)"/>
      <path id="Path_45" data-name="Path 45" d="M12.33,6.916l-.5-1.014-.5,1.014-1.121.164.81.79-.191,1.117,1-.527,1,.527L12.641,7.87l.81-.79Z" transform="translate(-7.005 -3.379)"/>
    </g>
  </g>
</svg>
