<svg xmlns="http://www.w3.org/2000/svg" xmlns:xlink="http://www.w3.org/1999/xlink" width="24" height="24" viewBox="0 0 24 24">
  <defs>
    <clipPath id="clip-path">
      <rect id="Rectangle_46" data-name="Rectangle 46" width="24" height="24" transform="translate(1214 254)" fill="#32405b" stroke="#707070" stroke-width="1"/>
    </clipPath>
  </defs>
  <g id="Mask_Group_13" data-name="Mask Group 13" transform="translate(-1214 -254)" clip-path="url(#clip-path)">
    <g id="Page-1" transform="translate(1214.001 254.001)">
      <g id="_003---Call" data-name="003---Call" transform="translate(-0.414)">
        <path id="Shape" d="M10.351,14.061a9.686,9.686,0,0,1-2.925-5.5.823.823,0,0,1,.236-.689L9.517,6.021A.828.828,0,0,0,9.633,5L6.682.414A.828.828,0,0,0,5.61.112L.872,2.344a.823.823,0,0,0-.455.822A22.9,22.9,0,0,0,7.391,17.02a22.9,22.9,0,0,0,13.854,6.974.823.823,0,0,0,.822-.455L24.3,18.8a.828.828,0,0,0-.3-1.07L19.416,14.78a.828.828,0,0,0-1.024.116l-1.853,1.854a.823.823,0,0,1-.689.236,9.686,9.686,0,0,1-5.5-2.925Z" fill="#32405b"/>
        <path id="Shape-2" data-name="Shape" d="M19.447,12.827A.828.828,0,0,1,18.62,12a6.214,6.214,0,0,0-6.207-6.207.828.828,0,0,1,0-1.655A7.87,7.87,0,0,1,20.275,12,.828.828,0,0,1,19.447,12.827Z" fill="#32405b"/>
        <path id="Shape-3" data-name="Shape" d="M23.585,12.827A.828.828,0,0,1,22.757,12,10.356,10.356,0,0,0,12.413,1.655a.828.828,0,0,1,0-1.655,12.013,12.013,0,0,1,12,12,.828.828,0,0,1-.828.828Z" fill="#32405b"/>
      </g>
    </g>
  </g>
</svg>
